<svg fill="none" height="48" viewBox="0 0 48 48" width="48" xmlns="http://www.w3.org/2000/svg" xmlns:xlink="http://www.w3.org/1999/xlink"><linearGradient id="a" gradientUnits="userSpaceOnUse" x1="4.74626" x2="70.6068" y1="8.63622" y2="59.748"><stop offset="0" stop-color="#955ae0"/><stop offset="1" stop-color="#4d67f0"/></linearGradient><path d="m3.72 8.16c4.32-2.46 10.26-3.66 15.36-3.66 14.94 0 24.42 6.96 24.42 16.38 0 7.5-6.54 12.12-15.24 12.12-7.02 0-12.24-2.58-12.24-6 0-3.24 3.3-4.8 7.98-3l1.2-3.66c-7.26-2.34-13.26.96-13.26 6.66s7.08 9.78 16.56 9.78c11.28 0 19.5-6.24 19.5-15.9 0-12.06-11.4-20.88-28.92-20.88-5.64 0-12 1.44-17.22 4.26zm40.56 31.68c-4.32 2.46-10.26 3.66-15.36 3.66-14.94 0-24.42-6.96-24.42-16.38 0-7.5 6.54-12.12 15.24-12.12 7.02 0 12.24 2.58 12.24 6 0 3.24-3.3 4.8-7.98 3l-1.2 3.66c7.26 2.34 13.26-.96 13.26-6.66s-7.08-9.78-16.56-9.78c-11.28 0-19.5 6.24-19.5 15.9 0 12.06 11.4 20.88 28.92 20.88 5.64 0 12-1.44 17.22-4.26z" fill="url(#a)"/></svg>