<svg width="64" height="64" viewBox="0 0 64 64" fill="none" xmlns="http://www.w3.org/2000/svg">
<path d="M59.8748 0H25.7477C24.0896 0 22.5927 0.993115 21.9477 2.5206L6.14973 39.9415C5.93098 40.4596 5.82036 41.0171 5.82536 41.5796L5.97536 59.9082C5.99411 62.1731 7.83534 63.9994 10.1003 63.9994H27.7658C28.5714 63.9994 29.3589 63.7638 30.032 63.3213L62.1411 42.2127C63.3017 41.4502 63.9998 40.1546 63.9998 38.7659V4.12496C63.9998 1.84686 62.1529 0 59.8748 0Z" fill="url(#paint0_linear_939_522)"/>
<path d="M14.9874 6H4.12496C1.84686 6 0 7.84686 0 10.125V22.6905C0 22.8905 0.0143749 23.0905 0.0437496 23.2886L5.49182 60.4732C5.78869 62.4988 7.52618 64.0001 9.57303 64.0001H24.9704C27.2491 64.0001 29.096 62.1526 29.0953 59.8738L29.091 41.3697C29.091 40.944 29.0247 40.5209 28.8953 40.1159L18.9167 8.8706C18.3704 7.16124 16.7817 6.00063 14.9874 6.00063V6Z" fill="url(#paint1_linear_939_522)"/>
<path d="M16.4503 6H4.1917C1.88797 6 0.030488 7.88686 0.0673626 10.1906L0.000488281 20.9999C0.0192381 22.1811 0.786731 23.5305 1.6836 24.2992L39.842 57.0057C40.5895 57.6464 41.542 57.9989 42.5263 57.9989H53.8756C56.1537 57.9989 58.0005 56.152 58.0005 53.8739V42.8709C58.0005 41.6815 57.4868 40.5497 56.5918 39.7665L19.1666 7.02062C18.4147 6.3625 17.4497 6 16.4503 6Z" fill="#FDB60D"/>
<path d="M52.0002 12H12V51.9996H51.9996V12H52.0002Z" fill="black"/>
<path fill-rule="evenodd" clip-rule="evenodd" d="M17.0122 16.9937H23.454C24.5046 16.9937 25.4296 17.1868 26.2302 17.5724C27.0302 17.958 27.6465 18.5011 28.079 19.2018C28.5115 19.9024 28.7277 20.713 28.7277 21.6349C28.7277 22.5567 28.5077 23.3836 28.0683 24.0948C27.629 24.8061 27.0034 25.3561 26.1927 25.7454C25.9697 25.8525 25.7368 25.9449 25.4941 26.0225L29.0496 32.0004H25.6946L22.4596 26.3298H19.9384V31.9998H17.0122V16.9937ZM24.5528 23.6236C24.9209 23.4411 25.2046 23.1805 25.4046 22.8411C25.6046 22.5017 25.7046 22.1067 25.7046 21.6567C25.7046 21.2067 25.6046 20.8049 25.4046 20.4724C25.2046 20.1399 24.9203 19.883 24.5528 19.7005C24.1846 19.518 23.754 19.4274 23.2609 19.4274H19.9378V23.8973H23.2609C23.754 23.8973 24.1846 23.8055 24.5528 23.6236Z" fill="white"/>
<path d="M32.9998 43.9995H17V46.9995H32.9998V43.9995Z" fill="white"/>
<path fill-rule="evenodd" clip-rule="evenodd" d="M42.812 28.1735V26.2654L40.5993 26.2693L41.3572 22.7324L43.8838 22.728V20.7986L41.7708 20.8023L42.587 16.9937H40.4539L39.6369 20.806L36.442 20.8116L37.2601 16.9937H35.127L34.3081 20.8153L31.6858 20.8199V22.7492L33.8945 22.7454L33.1366 26.2823L30.6139 26.2867V28.1948L32.7276 28.1911L31.9114 31.9998H34.0445L34.8615 28.1874L38.0564 28.1818L37.2383 31.9998H39.3714L40.1903 28.1781L42.812 28.1735ZM35.2705 26.2786L38.4654 26.273L39.2233 22.7361L36.0284 22.7417L35.2705 26.2786Z" fill="white"/>
<defs>
<linearGradient id="paint0_linear_939_522" x1="4.32412" y1="59.9325" x2="62.9198" y2="1.33686" gradientUnits="userSpaceOnUse">
<stop offset="0.29" stop-color="#FF45ED"/>
<stop offset="0.7" stop-color="#FF0A67"/>
</linearGradient>
<linearGradient id="paint1_linear_939_522" x1="-0.390622" y1="7.67061" x2="24.3929" y2="61.1251" gradientUnits="userSpaceOnUse">
<stop offset="0.3" stop-color="#FDB60D"/>
<stop offset="0.54" stop-color="#FF45ED"/>
</linearGradient>
</defs>
</svg>
