<svg fill="none" height="64" viewBox="0 0 64 64" width="64" xmlns="http://www.w3.org/2000/svg" xmlns:xlink="http://www.w3.org/1999/xlink"><linearGradient id="a" gradientUnits="userSpaceOnUse" x1="64.7173" x2="39.8545" y1="56.3782" y2="2.75258"><stop offset=".21" stop-color="#007dfe"/><stop offset=".55" stop-color="#ffb700"/></linearGradient><linearGradient id="b" gradientUnits="userSpaceOnUse" x1="59.7777" x2="1.07287" y1="3.98138" y2="62.6868"><stop offset=".23" stop-color="#ffb700"/><stop offset=".73" stop-color="#ff0a67"/></linearGradient><path d="m48.0524 58.1818 11.8755-.0018c2.2493 0 4.0721-1.8234 4.0721-4.0727v-11.5066c0-1.1887-.5195-2.3186-1.4219-3.0924l-38.1615-32.70982c-.7383-.63244-1.6785-.98036-2.6508-.98036h-11.87545c-2.2493 0-4.07272 1.82341-4.07272 4.07272v11.50836c0 1.1887.51956 2.3186 1.42196 3.0924l38.16091 32.7092c.7383.633 1.6785.9804 2.6513.9804z" fill="#007dfe"/><path d="m49.4807 58.1818h10.4465c2.2493 0 4.0728-1.8234 4.0728-4.0727v-13.0927c0-.1925-.014-.3851-.0408-.576l-5.2776-36.94367c-.2869-2.00669-2.005-3.49673-4.032-3.49673h-15.6731c-2.2499 0-4.0733 1.824-4.0727 4.07389l.0047 18.53851c0 .4375.0704.8721.2088 1.2869l10.4995 31.4979c.5545 1.6629 2.1109 2.7846 3.8639 2.7846z" fill="url(#a)"/><path d="m4.07273 64h33.96827c1.6291 0 3.1017-.9711 3.7434-2.4681l16.0681-37.4906c.217-.5068.3293-1.0531.3293-1.6046v-18.36397c0-2.24931-1.8234-4.07273-4.0727-4.07273h-17.966c-.8046 0-1.5912.238545-2.2609.685382l-32.06867 21.402718c-1.132221.7558-1.81178455 2.0265-1.81178455 3.3874l-.00174545 34.4518c0 2.2493 1.82342 4.0727 4.07273 4.0727z" fill="url(#b)"/><path d="m52 12h-40v40h40z" fill="#000"/><g fill="#fff"><path clip-rule="evenodd" d="m43.448 20.643c-.636-1.1382-1.5182-2.0359-2.6466-2.6787-1.1215-.6429-2.3928-.9643-3.814-.9643h-5.7103v14.9994h5.7103c1.4212 0 2.6925-.3214 3.814-.9642 1.1284-.6429 2.0106-1.5268 2.6466-2.665.6354-1.1519.9533-2.4376.9533-3.8702s-.3179-2.7189-.9533-3.857zm-2.5926 6.5087c-.3645.7502-.8822 1.3253-1.5537 1.7139-.6716.4023-1.4539.6026-2.3464.6026h-2.7533v-9.937h2.7533c.8925 0 1.6748.2009 2.3464.6021.6715.3885 1.1892.9648 1.5537 1.7144.3644.7502.5464 1.6335.5464 2.6517s-.182 1.9021-.5464 2.6523z" fill-rule="evenodd"/><path clip-rule="evenodd" d="m20.0192 26.335h2.5243l3.2292 5.665h3.3536l-3.5712-6.0083c.0733-.0233.1479-.0446.2225-.0659.1681-.0481.3362-.0962.4881-.1665.8145-.4018 1.4395-.9511 1.8751-1.6605.4426-.71.6641-1.5267.6641-2.4646s-.2181-1.7276-.6537-2.4239c-.4288-.6962-1.0429-1.2455-1.843-1.6335-.8001-.3885-1.7254-.5762-2.7751-.5762h-6.4393v14.9994h2.9249zm0-6.8974h3.3216c.493 0 .9212.0942 1.2857.2681.3713.1877.6572.4419.8569.7771.1997.3346.3002.7232.3002 1.1784 0 .4551-.0999.8437-.3002 1.1921-.2003.3346-.4856.5895-.8569.7766-.3645.1871-.7927.268-1.2857.268h-3.3216z" fill-rule="evenodd"/><path d="m16.9937 44h16v3h-16z"/></g></svg>